<svg xmlns="http://www.w3.org/2000/svg"  viewBox="0 0 24 24" width="24px" height="24px"><path d="M 17 -0.001953125 L 17 0.99804688 L 17 2.0429688 C 16.859824 2.0173489 16.717335 1.9999317 16.570312 2 L 7.4296875 2 C 6.0993863 2 5.0019531 3.0993863 5.0019531 4.4296875 L 5.0019531 13.748047 C 4.6255663 13.844951 4.2348362 13.935947 3.8144531 14.015625 A 1.0001 1.0001 0 0 0 4 15.998047 L 5.0019531 15.998047 L 5.0019531 21.570312 C 5.0019531 22.900614 6.1013394 24 7.4316406 24 L 16.570312 24 C 17.900614 24 19 22.900614 19 21.570312 L 19 13.814453 C 19.764155 13.251943 20.418309 12.559372 20.878906 11.707031 A 1.0001 1.0001 0 0 0 20.494141 10.361328 L 19 9.5117188 L 19 4.4296875 L 19 3.9980469 L 19 0.99804688 L 19 -0.001953125 L 17 -0.001953125 z M 7.4296875 4 L 16.570312 4 C 16.816169 3.9996884 17 4.1839887 17 4.4296875 L 17 4.9980469 L 17 8.3730469 L 14.818359 7.1308594 A 1.0001 1.0001 0 0 0 14.339844 7 A 1.0001 1.0001 0 0 0 13.570312 7.3398438 C 12.538676 8.5182103 11.672001 9.5990473 10.714844 10.546875 C 10.612715 10.281606 10.523556 10.018639 10.466797 9.7734375 C 10.227797 8.7474375 8.7585313 8.7484375 8.5195312 9.7734375 C 8.2420518 10.966426 7.6726002 12.046654 7.0019531 12.84375 L 7.0019531 4.4296875 C 7.0019531 4.1839887 7.1839887 4 7.4296875 4 z M 14.503906 9.2519531 L 17.361328 10.878906 A 1.0001 1.0001 0 0 0 17.660156 11.046875 L 18.455078 11.5 C 17.820577 12.189494 17.005023 12.791004 15.929688 13.195312 C 14.46962 13.744274 12.742086 13.998047 11.226562 13.998047 L 9.3125 13.998047 C 11.473722 12.686003 12.997553 10.997456 14.503906 9.2519531 z M 17 14.904297 L 17 21.570312 C 17 21.816011 16.816011 22 16.570312 22 L 7.4316406 22 C 7.1859418 22 7.0019531 21.816011 7.0019531 21.570312 L 7.0019531 15.998047 L 11.226562 15.998047 C 12.959041 15.998047 14.886582 15.725648 16.634766 15.068359 C 16.760017 15.021267 16.876423 14.955558 17 14.904297 z"/></svg>